<svg width="88" height="68" viewBox="0 0 88 68" fill="none" xmlns="http://www.w3.org/2000/svg">
<path d="M80 2C75.56 0.6 70.68 0 66 0C58.2 0 49.8 1.6 44 6C38.2 1.6 29.8 0 22 0C14.2 0 5.8 1.6 0 6V64.6C0 65.6 1 66.6 2 66.6C2.4 66.6 2.6 66.4 3 66.4C8.4 63.8 16.2 62 22 62C29.8 62 38.2 63.6 44 68C49.4 64.6 59.2 62 66 62C72.6 62 79.4 63.2 85 66.2C85.4 66.4 85.6 66.4 86 66.4C87 66.4 88 65.4 88 64.4V6C85.6 4.2 83 3 80 2ZM80 56C75.6 54.6 70.8 54 66 54C59.2 54 49.4 56.6 44 60V14C49.4 10.6 59.2 8 66 8C70.8 8 75.6 8.6 80 10V56Z" fill="#5686E1"/>
<path d="M66 24C69.52 24 72.92 24.36 76 25.04V18.96C72.84 18.36 69.44 18 66 18C59.2 18 53.04 19.16 48 21.32V27.96C52.52 25.4 58.8 24 66 24Z" fill="#5686E1"/>
<path d="M48 31.96V38.6C52.52 36.04 58.8 34.64 66 34.64C69.52 34.64 72.92 35 76 35.68V29.6C72.84 29 69.44 28.64 66 28.64C59.2 28.64 53.04 29.84 48 31.96Z" fill="#5686E1"/>
<path d="M66 39.32C59.2 39.32 53.04 40.48 48 42.64V49.28C52.52 46.72 58.8 45.32 66 45.32C69.52 45.32 72.92 45.68 76 46.36V40.28C72.84 39.64 69.44 39.32 66 39.32Z" fill="#5686E1"/>
</svg>
